<svg width="350" height="38" viewBox="0 0 350 38" fill="none" xmlns="http://www.w3.org/2000/svg">
<path d="M5.12 30.32C5.12 31.6 4.32 32.24 2.72 32.24C1.14667 32.24 0.36 31.6 0.36 30.32V1.96C0.36 0.679999 1.14667 0.039999 2.72 0.039999C4.32 0.039999 5.12 0.679999 5.12 1.96V30.32ZM23.5681 14.6C23.5681 14.2533 23.5148 13.92 23.4081 13.6C23.3015 13.2533 23.1681 12.9333 23.0081 12.64C22.6615 12 21.9415 11.68 20.8481 11.68H18.2881C17.1948 11.68 16.4615 12 16.0881 12.64C15.7681 13.2533 15.6081 13.9067 15.6081 14.6V30.44C15.6081 31.6933 14.8748 32.32 13.4081 32.32C11.8881 32.32 11.1281 31.6933 11.1281 30.44V14.24C11.1281 12.0533 11.8481 10.4533 13.2881 9.44C14.7548 8.42666 16.1815 7.92 17.5681 7.92H21.6081C22.2215 7.92 22.9015 8.04 23.6481 8.28C24.3948 8.52 25.1148 8.89333 25.8081 9.4C26.4748 8.89333 27.1681 8.52 27.8881 8.28C28.6348 8.04 29.3415 7.92 30.0081 7.92H34.0081C35.4215 7.92 36.8348 8.42666 38.2481 9.44C39.7148 10.4267 40.4481 12.0267 40.4481 14.24V30.44C40.4481 31.6933 39.7015 32.32 38.2081 32.32C36.7148 32.32 35.9681 31.6933 35.9681 30.44V14.6C35.9681 14.2533 35.9281 13.9067 35.8481 13.56C35.7681 13.2133 35.6215 12.8933 35.4081 12.6L35.4481 12.64C35.2348 12.2933 34.9681 12.0533 34.6481 11.92C34.3281 11.76 33.8615 11.68 33.2481 11.68H30.7281C29.6081 11.68 28.8748 12 28.5281 12.64C28.1815 13.2267 28.0081 13.88 28.0081 14.6V30.44C28.0081 31.6933 27.2748 32.32 25.8081 32.32C24.3148 32.32 23.5681 31.6933 23.5681 30.44V14.6ZM51.3488 32C50.5221 32 49.7354 31.8933 48.9888 31.68C48.2421 31.44 47.5221 31.1067 46.8288 30.68V30.72C45.5221 29.8933 44.8688 28.3733 44.8688 26.16V24.2C44.8688 23.1067 45.0554 22.16 45.4288 21.36C45.8288 20.5333 46.3754 19.88 47.0688 19.4H47.0288C47.6954 18.9467 48.4021 18.6133 49.1488 18.4C49.8954 18.16 50.6154 18.04 51.3088 18.04H60.1488V14.32C60.1488 13.6533 59.9354 13.0533 59.5088 12.52C59.1088 11.96 58.4154 11.68 57.4288 11.68H52.7487C51.7354 11.68 51.0288 11.9333 50.6288 12.44C50.2554 12.92 50.0688 13.4933 50.0688 14.16V14.48C50.0688 15.8667 49.3221 16.56 47.8288 16.56C46.3354 16.56 45.5888 15.8667 45.5888 14.48V14.12C45.5888 13.0267 45.7754 12.1067 46.1488 11.36C46.5488 10.6133 47.0821 9.98667 47.7487 9.48H47.7088C48.4021 9.02667 49.1221 8.65333 49.8688 8.36C50.6421 8.06666 51.3754 7.92 52.0688 7.92H58.1488C58.8154 7.92 59.5221 8.06666 60.2688 8.36C61.0421 8.65333 61.7621 9.02667 62.4288 9.48H62.3888C63.0821 9.98667 63.6154 10.6533 63.9888 11.48C64.3621 12.28 64.5488 13.2133 64.5488 14.28V30.32C64.5488 31.6 63.8154 32.24 62.3488 32.24C62.0554 32.24 61.7754 32.2267 61.5088 32.2C61.2688 32.1733 61.0421 32.1067 60.8288 32C60.6421 31.8667 60.4821 31.6933 60.3488 31.48C60.2421 31.24 60.1888 30.9333 60.1888 30.56L60.1488 21.8H52.0688C51.4821 21.8 51.0288 21.8667 50.7088 22C50.3888 22.1333 50.1354 22.3467 49.9488 22.64C49.7354 23.0933 49.5754 23.4533 49.4688 23.72C49.3888 23.96 49.3488 24.24 49.3488 24.56V26.12C49.3488 26.8133 49.5488 27.3467 49.9488 27.72C50.3754 28.0667 51.0954 28.24 52.1088 28.24H56.5888C57.5754 28.24 58.0688 28.8667 58.0688 30.12C58.0688 30.6533 57.9488 31.1067 57.7088 31.48C57.4688 31.8267 57.0954 32 56.5888 32H51.3488ZM76.1628 29.2C75.4695 29.2 74.7495 29.08 74.0028 28.84C73.2828 28.6 72.5761 28.2533 71.8828 27.8C70.4428 26.8667 69.7228 25.2933 69.7228 23.08V14.04C69.7228 12.92 69.9095 11.96 70.2828 11.16C70.6828 10.36 71.2161 9.73333 71.8828 9.28C72.5761 8.85333 73.2828 8.52 74.0028 8.28C74.7228 8.04 75.4295 7.92 76.1228 7.92H82.8428C83.5095 7.92 84.2028 8.06666 84.9228 8.36C85.6428 8.65333 86.3095 9.02667 86.9228 9.48C87.5361 9.98667 88.0295 10.6533 88.4028 11.48C88.7761 12.3067 88.9628 13.24 88.9628 14.28V31.24C88.9628 32.36 88.7761 33.3067 88.4028 34.08C88.0561 34.88 87.5628 35.5467 86.9228 36.08C86.3095 36.5867 85.6428 36.9733 84.9228 37.24C84.2295 37.5333 83.5361 37.68 82.8428 37.68H76.1228C74.7095 37.68 73.2828 37.2667 71.8428 36.44C71.0961 36.0133 70.5495 35.4667 70.2028 34.8C69.8828 34.1333 69.7228 33.36 69.7228 32.48V32C69.7228 31.4667 69.8961 31.04 70.2428 30.72C70.5895 30.4 71.1361 30.24 71.8828 30.24C73.3761 30.4 74.1228 30.9867 74.1228 32V32.44C74.1228 32.7333 74.3228 33.0533 74.7228 33.4C75.1495 33.7467 75.8561 33.92 76.8428 33.92H81.8428C82.8295 33.92 83.5228 33.64 83.9228 33.08C84.3495 32.52 84.5628 31.8933 84.5628 31.2V14.32C84.5628 13.6533 84.3495 13.0533 83.9228 12.52C83.5228 11.96 82.8295 11.68 81.8428 11.68H76.8428C75.8561 11.68 75.1495 11.96 74.7228 12.52C74.3228 13.0533 74.1228 13.6533 74.1228 14.32V22.76C74.1228 23.4267 74.3228 24.0533 74.7228 24.64C75.1495 25.2 75.8561 25.48 76.8428 25.48H81.0028C81.9628 25.48 82.4428 26.0933 82.4428 27.32C82.4428 27.88 82.3228 28.3333 82.0828 28.68C81.8695 29.0267 81.5095 29.2 81.0028 29.2H76.1628ZM98.7322 25.6C98.7322 26.24 98.9322 26.84 99.3322 27.4C99.7589 27.96 100.466 28.24 101.452 28.24H106.452C107.439 28.24 108.132 28 108.532 27.52C108.959 27.0133 109.172 26.44 109.172 25.8V25.36C109.172 24.1067 109.906 23.48 111.372 23.48C112.839 23.48 113.572 24.1067 113.572 25.36V25.84C113.572 26.96 113.386 27.88 113.012 28.6C112.666 29.32 112.132 29.9467 111.412 30.48C109.999 31.4933 108.586 32 107.172 32H100.452C99.0389 32 97.6655 31.4933 96.3322 30.48C95.6922 29.9467 95.1989 29.28 94.8522 28.48C94.5055 27.6533 94.3322 26.7067 94.3322 25.64V14.24C94.3322 12.08 94.9989 10.48 96.3322 9.44C96.9989 8.96 97.6789 8.58667 98.3722 8.32C99.0922 8.02667 99.7855 7.88 100.452 7.88H107.172C107.812 7.88 108.519 8.01333 109.292 8.28C110.066 8.52 110.786 8.85333 111.452 9.28C112.092 9.73333 112.599 10.36 112.972 11.16C113.372 11.96 113.572 12.9067 113.572 14V19.4C113.572 20.0133 113.386 20.56 113.012 21.04C112.666 21.52 112.012 21.76 111.052 21.76H102.412C101.452 21.76 100.946 21.1333 100.892 19.88C100.892 18.6267 101.399 18 102.412 18H109.212L109.172 14.28C109.172 13.6133 108.959 13.0133 108.532 12.48C108.132 11.92 107.439 11.64 106.452 11.64H101.452C100.466 11.64 99.7589 11.92 99.3322 12.48C98.9322 13.0133 98.7322 13.6133 98.7322 14.28V25.6ZM123.068 30.32C123.068 31.6 122.335 32.24 120.868 32.24C119.401 32.24 118.668 31.6 118.668 30.32V14.24C118.668 13.1467 118.841 12.2 119.188 11.4C119.535 10.6 120.081 9.94667 120.828 9.44C122.241 8.42666 123.655 7.92 125.068 7.92H131.508C132.868 7.92 134.281 8.42666 135.748 9.44C137.188 10.4533 137.908 12.0533 137.908 14.24V30.32C137.908 31.6 137.175 32.24 135.708 32.24C134.241 32.24 133.508 31.6 133.508 30.32V14.6C133.508 13.9067 133.295 13.24 132.868 12.6L132.908 12.64C132.561 12 131.855 11.68 130.788 11.68H125.788C124.695 11.68 123.975 12 123.628 12.64C123.255 13.2 123.068 13.8533 123.068 14.6V30.32ZM156.082 18C156.749 18 157.456 18.16 158.202 18.48C158.976 18.7733 159.696 19.1467 160.362 19.6H160.322C161.016 20.1067 161.549 20.76 161.922 21.56C162.296 22.36 162.482 23.32 162.482 24.44V25.64C162.482 27.8267 161.762 29.44 160.322 30.48C159.629 31.0133 158.922 31.4 158.202 31.64C157.482 31.88 156.776 32 156.082 32H149.282C148.589 32 147.882 31.88 147.162 31.64C146.442 31.4 145.736 31.0133 145.042 30.48C143.602 29.4667 142.882 27.8533 142.882 25.64V25.16C142.882 24.0133 143.616 23.4533 145.082 23.48C146.576 23.48 147.322 24.04 147.322 25.16V25.6C147.322 26.24 147.522 26.84 147.922 27.4C148.322 27.96 149.029 28.24 150.042 28.24H155.322C156.336 28.24 157.042 27.96 157.442 27.4C157.842 26.84 158.042 26.24 158.042 25.6V24.48C158.042 24.1333 157.989 23.8 157.882 23.48C157.802 23.16 157.656 22.88 157.442 22.64C157.229 22.3733 156.949 22.16 156.602 22C156.256 21.84 155.829 21.76 155.322 21.76H149.482C148.122 21.76 146.696 21.28 145.202 20.32C143.789 19.4133 143.082 17.8533 143.082 15.64V14.28C143.082 13.2133 143.269 12.28 143.642 11.48C144.016 10.6533 144.549 9.98667 145.242 9.48H145.202C145.869 9.02667 146.576 8.65333 147.322 8.36C148.069 8.06666 148.789 7.92 149.482 7.92H155.882C156.576 7.92 157.282 8.06666 158.002 8.36C158.749 8.65333 159.469 9.02667 160.162 9.48H160.122C160.816 9.98667 161.349 10.6533 161.722 11.48C162.096 12.28 162.282 13.2133 162.282 14.28V14.64C162.282 15.2 162.096 15.6133 161.722 15.88C161.349 16.12 160.802 16.2533 160.082 16.28C158.616 16.3067 157.882 15.76 157.882 14.64V14.32C157.882 13.6533 157.669 13.0533 157.242 12.52C156.842 11.96 156.149 11.68 155.162 11.68H150.202C149.216 11.68 148.509 11.96 148.082 12.52C147.682 13.0533 147.482 13.6533 147.482 14.32V15.28C147.482 15.9733 147.682 16.6 148.082 17.16C148.509 17.72 149.216 18 150.202 18H156.082ZM194.524 11.68H186.804C185.71 11.68 184.99 12 184.644 12.64C184.27 13.2 184.084 13.8533 184.084 14.6V26.12C184.084 26.8133 184.297 27.3467 184.724 27.72C185.15 28.0667 185.857 28.24 186.844 28.24H190.964C191.924 28.24 192.404 28.8667 192.404 30.12C192.404 30.6533 192.284 31.1067 192.044 31.48C191.83 31.8267 191.47 32 190.964 32H186.124C184.444 32 182.95 31.5733 181.644 30.72C180.337 29.92 179.684 28.4 179.684 26.16V14.24C179.684 13.1467 179.857 12.2 180.204 11.4C180.55 10.6 181.097 9.94667 181.844 9.44C183.257 8.42666 184.67 7.92 186.084 7.92H194.524V1.92C194.524 0.639999 195.257 -4.76837e-07 196.724 -4.76837e-07C198.19 -4.76837e-07 198.924 0.639999 198.924 1.92V30.32C198.924 31.6 198.19 32.24 196.724 32.24C196.164 32.24 195.657 32.1467 195.204 31.96C194.75 31.7467 194.524 31.2933 194.524 30.6V11.68ZM210.255 32C209.428 32 208.642 31.8933 207.895 31.68C207.148 31.44 206.428 31.1067 205.735 30.68V30.72C204.428 29.8933 203.775 28.3733 203.775 26.16V24.2C203.775 23.1067 203.962 22.16 204.335 21.36C204.735 20.5333 205.282 19.88 205.975 19.4H205.935C206.602 18.9467 207.308 18.6133 208.055 18.4C208.802 18.16 209.522 18.04 210.215 18.04H219.055V14.32C219.055 13.6533 218.842 13.0533 218.415 12.52C218.015 11.96 217.322 11.68 216.335 11.68H211.655C210.642 11.68 209.935 11.9333 209.535 12.44C209.162 12.92 208.975 13.4933 208.975 14.16V14.48C208.975 15.8667 208.228 16.56 206.735 16.56C205.242 16.56 204.495 15.8667 204.495 14.48V14.12C204.495 13.0267 204.682 12.1067 205.055 11.36C205.455 10.6133 205.988 9.98667 206.655 9.48H206.615C207.308 9.02667 208.028 8.65333 208.775 8.36C209.548 8.06666 210.282 7.92 210.975 7.92H217.055C217.722 7.92 218.428 8.06666 219.175 8.36C219.948 8.65333 220.668 9.02667 221.335 9.48H221.295C221.988 9.98667 222.522 10.6533 222.895 11.48C223.268 12.28 223.455 13.2133 223.455 14.28V30.32C223.455 31.6 222.722 32.24 221.255 32.24C220.962 32.24 220.682 32.2267 220.415 32.2C220.175 32.1733 219.948 32.1067 219.735 32C219.548 31.8667 219.388 31.6933 219.255 31.48C219.148 31.24 219.095 30.9333 219.095 30.56L219.055 21.8H210.975C210.388 21.8 209.935 21.8667 209.615 22C209.295 22.1333 209.042 22.3467 208.855 22.64C208.642 23.0933 208.482 23.4533 208.375 23.72C208.295 23.96 208.255 24.24 208.255 24.56V26.12C208.255 26.8133 208.455 27.3467 208.855 27.72C209.282 28.0667 210.002 28.24 211.015 28.24H215.495C216.482 28.24 216.975 28.8667 216.975 30.12C216.975 30.6533 216.855 31.1067 216.615 31.48C216.375 31.8267 216.002 32 215.495 32H210.255ZM258.701 1.96C258.701 0.679999 259.488 0.039999 261.061 0.039999C262.635 0.039999 263.421 0.679999 263.421 1.96V29.56C263.421 30.4933 262.928 31.1733 261.941 31.6H261.981C261.555 31.7867 261.101 31.9333 260.621 32.04C260.141 32.1467 259.675 32.2 259.221 32.2C258.875 32.2 258.515 32.16 258.141 32.08C257.768 32.0267 257.408 31.9333 257.061 31.8C256.741 31.64 256.435 31.44 256.141 31.2C255.875 30.9333 255.661 30.6133 255.501 30.24L246.821 8.6L245.741 8.72V30.32C245.741 31.6 244.941 32.24 243.341 32.24C241.768 32.24 240.981 31.6 240.981 30.32V2.76C240.981 1.66667 241.461 0.933333 242.421 0.559999C243.301 0.213332 244.235 0.039999 245.221 0.039999C245.915 0.039999 246.608 0.186665 247.301 0.479998C248.021 0.746665 248.568 1.26666 248.941 2.04L257.581 23.72L258.701 23.6V1.96ZM279.9 4.16L271.14 31.04V31C270.98 31.4 270.753 31.7333 270.46 32C270.193 32.24 269.86 32.36 269.46 32.36C269.246 32.36 269.033 32.3333 268.82 32.28C268.633 32.2533 268.433 32.2133 268.22 32.16H268.26C266.74 31.68 266.18 30.8267 266.58 29.6L275.7 1.88C275.833 1.45333 276.06 1.09333 276.38 0.799999C276.726 0.506666 277.126 0.333333 277.58 0.279998C278.033 0.199998 278.473 0.146664 278.9 0.119998C279.326 0.0666653 279.66 0.039999 279.9 0.039999C280.14 0.039999 280.473 0.0666653 280.9 0.119998C281.326 0.146664 281.766 0.186665 282.22 0.239999C282.593 0.293331 282.953 0.493331 283.3 0.839998C283.673 1.18667 283.953 1.53333 284.14 1.88C285.633 6.46667 287.14 11.0933 288.66 15.76C290.206 20.4 291.726 25.0133 293.22 29.6C293.593 30.8267 293.033 31.68 291.54 32.16C291.326 32.2133 291.126 32.2533 290.94 32.28C290.78 32.3333 290.593 32.36 290.38 32.36C290.006 32.36 289.66 32.24 289.34 32C289.046 31.7333 288.833 31.4 288.7 31V31.04L279.9 4.16ZM282.9 22.4C282.9 23.2533 282.593 23.9867 281.98 24.6C281.393 25.1867 280.673 25.48 279.82 25.48C278.966 25.48 278.246 25.1867 277.66 24.6C277.073 23.9867 276.78 23.2533 276.78 22.4C276.78 21.5467 277.073 20.8267 277.66 20.24C278.246 19.6267 278.966 19.32 279.82 19.32C280.673 19.32 281.393 19.6267 281.98 20.24C282.593 20.8267 282.9 21.5467 282.9 22.4ZM311.962 13.72C312.655 13.72 313.375 13.8667 314.122 14.16C314.868 14.4533 315.588 14.84 316.282 15.32H316.242C316.935 15.8 317.468 16.4533 317.842 17.28C318.215 18.1067 318.402 19.0533 318.402 20.12V25.6C318.402 27.76 317.682 29.3733 316.242 30.44C315.548 30.9467 314.828 31.3467 314.082 31.64C313.362 31.9067 312.655 32.04 311.962 32.04H303.242C302.548 32.04 301.828 31.9067 301.082 31.64C300.362 31.3467 299.655 30.9467 298.962 30.44C297.522 29.3733 296.802 27.76 296.802 25.6V22.96C296.802 21.7067 297.588 21.08 299.162 21.08C300.762 21.08 301.562 21.7067 301.562 22.96V25.28C301.562 25.9733 301.762 26.6 302.162 27.16C302.562 27.72 303.255 28 304.242 28H310.962C311.948 28 312.642 27.72 313.042 27.16C313.442 26.6 313.642 25.9733 313.642 25.28V20.44C313.642 19.7733 313.442 19.16 313.042 18.6C312.642 18.0133 311.948 17.72 310.962 17.72H303.242C301.855 17.72 300.428 17.2133 298.962 16.2C297.522 15.08 296.802 13.4667 296.802 11.36V6.6C296.802 5.53333 296.988 4.6 297.362 3.8C297.735 2.97333 298.268 2.30666 298.962 1.8H298.922C299.615 1.34667 300.335 0.973332 301.082 0.679998C301.828 0.386665 302.548 0.239999 303.242 0.239999H311.962C312.655 0.239999 313.375 0.386665 314.122 0.679998C314.868 0.973332 315.588 1.34667 316.282 1.8H316.242C316.935 2.30666 317.468 2.97333 317.842 3.8C318.215 4.6 318.402 5.53333 318.402 6.6V8.96C318.402 10.2133 317.602 10.84 316.002 10.84C314.428 10.84 313.642 10.2133 313.642 8.96V6.96C313.642 6.29333 313.442 5.68 313.042 5.12C312.642 4.56 311.948 4.28 310.962 4.28H304.242C303.255 4.28 302.562 4.56 302.162 5.12C301.762 5.68 301.562 6.29333 301.562 6.96V11.04C301.562 11.7333 301.762 12.36 302.162 12.92C302.562 13.4533 303.255 13.72 304.242 13.72H311.962ZM335.212 4.16L326.452 31.04V31C326.292 31.4 326.066 31.7333 325.772 32C325.506 32.24 325.172 32.36 324.772 32.36C324.559 32.36 324.346 32.3333 324.132 32.28C323.946 32.2533 323.746 32.2133 323.532 32.16H323.572C322.052 31.68 321.492 30.8267 321.892 29.6L331.012 1.88C331.146 1.45333 331.372 1.09333 331.692 0.799999C332.039 0.506666 332.439 0.333333 332.892 0.279998C333.346 0.199998 333.786 0.146664 334.212 0.119998C334.639 0.0666653 334.972 0.039999 335.212 0.039999C335.452 0.039999 335.786 0.0666653 336.212 0.119998C336.639 0.146664 337.079 0.186665 337.532 0.239999C337.906 0.293331 338.266 0.493331 338.612 0.839998C338.986 1.18667 339.266 1.53333 339.452 1.88C340.946 6.46667 342.452 11.0933 343.972 15.76C345.519 20.4 347.039 25.0133 348.532 29.6C348.906 30.8267 348.346 31.68 346.852 32.16C346.639 32.2133 346.439 32.2533 346.252 32.28C346.092 32.3333 345.906 32.36 345.692 32.36C345.319 32.36 344.972 32.24 344.652 32C344.359 31.7333 344.146 31.4 344.012 31V31.04L335.212 4.16ZM338.212 22.4C338.212 23.2533 337.906 23.9867 337.292 24.6C336.706 25.1867 335.986 25.48 335.132 25.48C334.279 25.48 333.559 25.1867 332.972 24.6C332.386 23.9867 332.092 23.2533 332.092 22.4C332.092 21.5467 332.386 20.8267 332.972 20.24C333.559 19.6267 334.279 19.32 335.132 19.32C335.986 19.32 336.706 19.6267 337.292 20.24C337.906 20.8267 338.212 21.5467 338.212 22.4Z" fill="white"/>
</svg>
